<svg width="64" height="206" viewBox="0 0 64 206" fill="none" xmlns="http://www.w3.org/2000/svg">
<path fill-rule="evenodd" clip-rule="evenodd" d="M14.6204 1.0874C2.23981 59.4321 -2.46482 128.168 1.22319 196.825C1.47644 201.537 1.73209 205.446 1.79192 205.512C1.85134 205.579 8.4943 205.265 16.5539 204.815C24.6139 204.365 31.3358 203.997 31.4918 203.997C31.6477 203.997 31.8918 199.022 32.0342 192.94C33.2562 140.731 45.1598 71.1126 62.7746 13.1512C63.5383 10.637 64.0852 8.50132 63.989 8.40529C63.847 8.26384 15.9469 0.0279261 15.1022 3.47467e-05C14.965 -0.00474663 14.7484 0.484547 14.6204 1.0874ZM44.587 33.286L47.1013 36.2381L45.47 39.0276C42.6499 43.852 37.5608 54.5416 35.1259 60.7549C30.7555 71.9079 26.9227 85.528 25.0913 96.416C24.5936 99.3745 24.1656 101.832 24.1401 101.878C24.0926 101.962 13.0689 96.4347 12.818 96.2001C12.5991 95.9957 15.4356 86.5134 17.7588 79.6812C22.1084 66.8918 28.0562 53.2558 33.6614 43.2232C37.0587 37.1425 41.4047 30.2562 41.8151 30.3036C41.9571 30.3203 43.2043 31.6623 44.587 33.286Z" fill="#FF0000"/>
</svg>
